<svg width="17" height="17" viewBox="0 0 17 17" fill="none" xmlns="http://www.w3.org/2000/svg">
<path d="M10.204 5.7987V4.54843C10.204 4.21684 10.0723 3.89882 9.8378 3.66435C9.60333 3.42988 9.28532 3.29816 8.95373 3.29816H2.95242C2.62083 3.29816 2.30282 3.42988 2.06834 3.66435C1.83387 3.89882 1.70215 4.21684 1.70215 4.54843V12.0501C1.70215 12.3817 1.83387 12.6997 2.06834 12.9341C2.30282 13.1686 2.62083 13.3003 2.95242 13.3003H8.95373C9.28532 13.3003 9.60333 13.1686 9.8378 12.9341C10.0723 12.6997 10.204 12.3817 10.204 12.0501V10.7998" stroke="black" stroke-width="1.00189" stroke-linecap="round" stroke-linejoin="round"/>
<path d="M12.2051 5.79884L14.706 8.29975L12.2051 10.8006" stroke="black" stroke-width="1.00189" stroke-linecap="round" stroke-linejoin="round"/>
<path d="M6.17261 8.29944H14.7057" stroke="black" stroke-width="1.00189" stroke-linecap="round" stroke-linejoin="round"/>
</svg>
