<svg width="16" height="16" viewBox="0 0 16 16" fill="none" xmlns="http://www.w3.org/2000/svg">
<path d="M8 0.333344C3.59 0.333344 0 3.26534 0 6.86868C0 10.096 2.84667 12.8 6.69 13.314C6.95067 13.3693 7.30533 13.4873 7.39533 13.71C7.47533 13.912 7.448 14.224 7.42067 14.4347L7.31133 15.1187C7.28133 15.3207 7.15133 15.914 8.01067 15.5513C8.87133 15.19 12.6213 12.8153 14.3013 10.872C15.4507 9.60534 16 8.30734 16 6.86868C16 3.26534 12.41 0.333344 8 0.333344ZM4.86867 9.01134H3.278C3.048 9.01134 2.858 8.82001 2.858 8.58934V5.38868C2.858 5.15734 3.048 4.96601 3.278 4.96601C3.51 4.96601 3.698 5.15734 3.698 5.38868V8.16668H4.86867C5.10067 8.16668 5.288 8.35668 5.288 8.58934C5.288 8.82001 5.1 9.01134 4.86867 9.01134ZM6.51267 8.58934C6.51267 8.82001 6.32467 9.01134 6.092 9.01134C5.862 9.01134 5.674 8.82001 5.674 8.58934V5.38868C5.674 5.15734 5.862 4.96601 6.094 4.96601C6.32467 4.96601 6.51267 5.15734 6.51267 5.38868V8.58934ZM10.34 8.58934C10.34 8.77068 10.224 8.93134 10.052 8.98934C10.0093 9.00334 9.96333 9.01001 9.91933 9.01001C9.77867 9.01001 9.65867 8.94934 9.57933 8.84201L7.95067 6.61668V8.58868C7.95067 8.81934 7.76467 9.01068 7.53 9.01068C7.29933 9.01068 7.11267 8.81934 7.11267 8.58868V5.38868C7.11267 5.20734 7.228 5.04668 7.39933 4.98934C7.43933 4.97401 7.49 4.96734 7.52867 4.96734C7.65867 4.96734 7.77867 5.03734 7.85867 5.13801L9.5 7.37201V5.38868C9.5 5.15734 9.688 4.96601 9.92 4.96601C10.15 4.96601 10.34 5.15734 10.34 5.38868V8.58934ZM12.91 6.56601C13.1427 6.56601 13.33 6.75734 13.33 6.98934C13.33 7.22068 13.1427 7.41201 12.91 7.41201H11.74V8.16668H12.91C13.1427 8.16668 13.33 8.35668 13.33 8.58934C13.33 8.82001 13.1427 9.01134 12.91 9.01134H11.3193C11.0893 9.01134 10.9013 8.82001 10.9013 8.58934V5.38868C10.9013 5.15734 11.0893 4.96601 11.3213 4.96601H12.912C13.1427 4.96601 13.33 5.15734 13.33 5.38868C13.33 5.62268 13.1427 5.81134 12.91 5.81134H11.74V6.56601H12.91Z" fill="white"/>
</svg>
