<svg width="14" height="16" viewBox="0 0 14 16" fill="none" xmlns="http://www.w3.org/2000/svg">
<path d="M11.8812 3.70764C11.78 3.65531 11.6814 3.59795 11.5859 3.53576C11.3082 3.35215 11.0536 3.13581 10.8275 2.89139C10.2619 2.2442 10.0506 1.58764 9.97281 1.12795H9.97593C9.91094 0.746387 9.93781 0.499512 9.94187 0.499512H7.36562V10.4614C7.36562 10.5951 7.36562 10.7273 7.36 10.8579C7.36 10.8742 7.35844 10.8892 7.3575 10.9067C7.3575 10.9139 7.3575 10.9214 7.35594 10.9289C7.35594 10.9308 7.35594 10.9326 7.35594 10.9345C7.32878 11.2919 7.2142 11.6372 7.02228 11.94C6.83036 12.2427 6.56698 12.4937 6.25531 12.6708C5.93048 12.8556 5.56309 12.9525 5.18937 12.952C3.98906 12.952 3.01625 11.9733 3.01625 10.7645C3.01625 9.55576 3.98906 8.57701 5.18937 8.57701C5.41659 8.5768 5.6424 8.61255 5.85844 8.68295L5.86156 6.05982C5.20574 5.97511 4.53947 6.02723 3.9048 6.2129C3.27013 6.39857 2.68082 6.71375 2.17406 7.13857C1.73002 7.52439 1.35671 7.98473 1.07093 8.49889C0.962184 8.68639 0.551871 9.43982 0.502183 10.6626C0.470933 11.3567 0.679371 12.0758 0.778746 12.3729V12.3792C0.841246 12.5542 1.08343 13.1514 1.47812 13.6548C1.79638 14.0587 2.1724 14.4134 2.59406 14.7076V14.7014L2.60031 14.7076C3.8475 15.5551 5.23031 15.4995 5.23031 15.4995C5.46968 15.4898 6.27156 15.4995 7.18219 15.0679C8.19219 14.5895 8.76719 13.8767 8.76719 13.8767C9.13453 13.4508 9.42662 12.9654 9.63093 12.4414C9.86406 11.8286 9.94187 11.0936 9.94187 10.7998V5.51482C9.97312 5.53357 10.3894 5.80889 10.3894 5.80889C10.3894 5.80889 10.9891 6.19326 11.9247 6.44357C12.5959 6.6217 13.5003 6.6592 13.5003 6.6592V4.1017C13.1834 4.13607 12.54 4.03607 11.8812 3.70764Z" fill="white"/>
</svg>
