<svg width="16" height="12" viewBox="0 0 16 12" fill="none" xmlns="http://www.w3.org/2000/svg">
<path d="M15.8952 2.64975C15.8952 1.2435 14.8608 0.112248 13.5827 0.112248C11.8514 0.0313109 10.0858 6.10352e-05 8.28144 6.10352e-05H7.71894C5.91894 6.10352e-05 4.15019 0.031311 2.41894 0.112561C1.14394 0.112561 0.109565 1.25006 0.109565 2.65631C0.03144 3.7685 -0.00168497 4.881 0.000190034 5.9935C-0.00293497 7.106 0.0324817 8.21954 0.10644 9.33412C0.10644 10.7404 1.14082 11.881 2.41582 11.881C4.23457 11.9654 6.10019 12.0029 7.99707 11.9997C9.89707 12.006 11.7575 11.9664 13.5783 11.881C14.8564 11.881 15.8908 10.7404 15.8908 9.33412C15.9658 8.2185 16.0002 7.106 15.9971 5.99037C16.0042 4.87787 15.9702 3.76433 15.8952 2.64975ZM6.46894 9.05912V2.9185L11.0002 5.98725L6.46894 9.05912Z" fill="white"/>
</svg>
